<svg width="94" height="38" viewBox="0 0 94 38" fill="none" xmlns="http://www.w3.org/2000/svg">
<path fill-rule="evenodd" clip-rule="evenodd" d="M6.22041 23.7353L6.07783 24.6473V24.6892L5.7864 26.6495C5.76642 26.7904 5.71709 26.9255 5.64161 27.0462C5.56613 27.1668 5.46617 27.2702 5.34819 27.3498C5.14975 27.4766 4.91902 27.5435 4.68355 27.5427H0.741809C0.0561987 27.5427 -0.0968581 26.9955 0.0520054 26.4273L5.32093 1.43158C5.45931 0.899046 5.79688 0.519561 6.36927 0.519561H9.76378C10.3446 0.519561 10.701 0.888563 10.8394 1.44626L16.0915 26.4483C16.2383 27.008 16.0915 27.549 15.4143 27.549H11.4768C11.2348 27.5537 10.997 27.4866 10.7932 27.3561C10.6709 27.2791 10.5688 27.1737 10.4958 27.0489C10.4228 26.924 10.381 26.7835 10.3739 26.639L10.0971 24.8339L9.92522 23.7269H6.22041V23.7353ZM9.19977 19.0493L9.1222 18.5441L8.07386 11.6714L7.07165 18.2044L6.94166 19.0431H9.19977V19.0493ZM23.2475 22.297H29.4725C30.0658 22.297 30.3468 22.7058 30.3468 23.2698V26.5112C30.3468 27.0814 30.091 27.5448 29.4725 27.5448H18.3622C17.7122 27.5448 17.3705 27.1255 17.3705 26.4965V1.57835C17.3585 1.30771 17.4432 1.04163 17.6095 0.827762C17.7029 0.721641 17.8192 0.63817 17.9496 0.58368C18.08 0.52919 18.2211 0.505112 18.3622 0.513271H22.2641C22.4024 0.505504 22.5406 0.529853 22.6679 0.584414C22.7952 0.638974 22.9082 0.722264 22.998 0.827762C23.1644 1.04154 23.2492 1.30768 23.237 1.57835V22.297H23.2475ZM37.7375 5.803V11.6399H42.5137C42.7432 11.6368 42.9662 11.7156 43.1427 11.8622C43.2407 11.9623 43.316 12.0822 43.3638 12.2138C43.4115 12.3454 43.4305 12.4858 43.4195 12.6253V15.8667C43.4195 16.4517 43.1155 16.8521 42.5075 16.8521H37.7375V20.2213H37.7229L34.4479 18.412C34.0416 18.1802 33.5821 18.0581 33.1144 18.0576C32.6796 18.057 32.2513 18.1628 31.8669 18.3659V1.57835C31.8565 1.3069 31.9435 1.04068 32.1122 0.827762C32.2052 0.722978 32.3206 0.64035 32.4497 0.585932C32.5789 0.531514 32.7186 0.506688 32.8586 0.513271H44.015C44.6188 0.513271 44.8662 0.972427 44.8662 1.52593V4.77147C44.8662 5.32707 44.6209 5.803 44.0108 5.803H37.7375ZM58.4946 15.8667L59.3332 18.5441L54.4102 21.2696L53.2822 17.2861H52.1773V22.5087L49.3216 24.0875C48.9618 24.2531 48.6424 24.4951 48.3857 24.7968C48.129 25.0984 47.9411 25.4523 47.8351 25.834L46.3108 24.9953V1.57835C46.3004 1.3069 46.3874 1.04068 46.5561 0.827762C46.6482 0.723472 46.7625 0.641103 46.8906 0.586687C47.0186 0.532272 47.1572 0.507188 47.2962 0.513271H54.1545C55.1572 0.506247 56.1512 0.700894 57.0772 1.08564C58.3898 1.62628 59.511 2.54646 60.2973 3.72831C61.0836 4.91015 61.4992 6.29982 61.4907 7.7193V9.91234C61.4964 10.5824 61.4161 11.2504 61.2517 11.8999C60.9677 13.0455 60.3895 14.097 59.5743 14.9505C59.2457 15.2903 58.884 15.5965 58.4946 15.8646V15.8667ZM69.4455 5.803V11.2877H74.7752C75.0131 11.2838 75.2448 11.364 75.4294 11.5141C75.5329 11.6106 75.6134 11.729 75.6649 11.8608C75.7164 11.9925 75.7377 12.1342 75.7271 12.2752V15.5333C75.7356 15.6693 75.7146 15.8056 75.6654 15.9326C75.6161 16.0597 75.5399 16.1745 75.4419 16.2692C75.256 16.4261 75.0183 16.5083 74.7752 16.4999H69.4518V22.297H76.3162C76.4331 22.2934 76.5495 22.3143 76.6578 22.3584C76.7661 22.4024 76.864 22.4686 76.9452 22.5528C77.034 22.649 77.1025 22.762 77.1468 22.8852C77.1911 23.0083 77.2103 23.1391 77.2031 23.2698V26.5552C77.2117 26.6872 77.194 26.8197 77.1512 26.9449C77.1084 27.0701 77.0412 27.1856 76.9536 27.2848C76.8725 27.3726 76.7738 27.4424 76.664 27.4897C76.5543 27.537 76.4358 27.5607 76.3162 27.5595H64.5749C63.9249 27.5595 63.5853 27.1401 63.5832 26.5112V1.57835C63.5728 1.3069 63.6598 1.04068 63.8285 0.827762C63.9212 0.722501 64.0364 0.639544 64.1657 0.585086C64.2949 0.530629 64.4348 0.506079 64.5749 0.513271H76.2261C76.8425 0.513271 77.1004 0.978717 77.1004 1.5448V4.79244C77.1004 5.35642 76.8341 5.803 76.2261 5.803H69.4455ZM78.8092 1.57835C78.7988 1.3069 78.8858 1.04068 79.0545 0.827762C79.1476 0.722978 79.2629 0.64035 79.3921 0.585932C79.5212 0.531514 79.6609 0.506688 79.8009 0.513271H86.4977C87.4872 0.506193 88.4713 0.659122 89.412 0.966138C90.2951 1.25403 91.1104 1.71839 91.8085 2.33103C92.4976 2.94836 93.0441 3.7081 93.4104 4.55762C93.8125 5.52196 94.0095 6.55939 93.9891 7.60398V20.4583C94.0106 21.5029 93.8135 22.5406 93.4104 23.5046C93.0451 24.3519 92.5016 25.1106 91.8169 25.7291C91.1268 26.3412 90.3192 26.8063 89.4435 27.0961C88.5059 27.4081 87.5236 27.5647 86.5354 27.5595H79.8009C79.1509 27.5595 78.8092 27.1401 78.8092 26.5112V1.57835ZM52.1815 5.803V12.3025H53.7603C54.0165 12.3192 54.2732 12.2794 54.5123 12.1859C54.7515 12.0924 54.9671 11.9476 55.1441 11.7615C55.4699 11.3715 55.6408 10.8752 55.6242 10.3673V7.73397C55.6381 7.47616 55.5999 7.21819 55.5121 6.97542C55.4242 6.73266 55.2883 6.51005 55.1126 6.32086C54.9317 6.14467 54.7163 6.00773 54.48 5.91862C54.2437 5.82951 53.9915 5.79015 53.7393 5.803H52.1815ZM84.6799 5.803V22.297H86.3383C86.5936 22.2895 86.8447 22.2303 87.0764 22.123C87.2889 22.0247 87.4777 21.8817 87.6299 21.7036C87.7886 21.5214 87.9129 21.3118 87.9968 21.0851C88.086 20.8299 88.13 20.5609 88.1268 20.2905V7.82413C88.1268 7.30207 88.0387 6.69196 87.6424 6.31457C87.2813 5.98538 86.8102 5.80294 86.3215 5.803H84.6799Z" fill="#293966"/>
<path fill-rule="evenodd" clip-rule="evenodd" d="M44.0874 29.5088L42.3492 28.5486C42.2758 28.5146 42.2138 28.4601 42.1706 28.3917C42.1274 28.3232 42.105 28.2437 42.106 28.1628C42.106 27.884 42.3681 27.5506 42.8923 27.8861L43.5842 28.2677L50.9225 32.333L60.2485 37.4906H60.2674C60.4493 37.5925 60.6543 37.6459 60.8628 37.6458C61.0266 37.6447 61.1886 37.6112 61.3395 37.5473C61.4903 37.4834 61.627 37.3904 61.7418 37.2735C61.8565 37.1566 61.9471 37.0181 62.0082 36.8662C62.0693 36.7142 62.0997 36.5516 62.0978 36.3878V20.7933C62.0994 20.6295 62.0688 20.4671 62.0076 20.3152C61.9464 20.1634 61.8559 20.025 61.7412 19.9082C61.6265 19.7914 61.4898 19.6983 61.3391 19.6343C61.1884 19.5703 61.0266 19.5367 60.8628 19.5353C60.6007 19.5356 60.3457 19.6201 60.1353 19.7764L49.9643 25.3995C49.7425 25.4921 49.5518 25.6463 49.4149 25.8438C49.2779 26.0414 49.2005 26.274 49.1917 26.5143C49.1828 26.7545 49.243 26.9922 49.3651 27.1993C49.4872 27.4063 49.666 27.5741 49.8805 27.6827L51.6165 28.6409C51.6903 28.675 51.7525 28.7298 51.7957 28.7987C51.8389 28.8675 51.8611 28.9475 51.8597 29.0287C51.8597 29.3076 51.5997 29.6409 51.0735 29.3055L50.4277 28.9491L43.0328 24.8586L33.7068 19.7009L33.6879 19.6884C33.506 19.5864 33.301 19.533 33.0924 19.5332C32.9287 19.5346 32.7669 19.5682 32.6161 19.6322C32.4654 19.6962 32.3288 19.7893 32.2141 19.9061C32.0994 20.0229 32.0089 20.1613 31.9477 20.3131C31.8865 20.465 31.8558 20.6274 31.8575 20.7912V36.4025C31.8556 36.5663 31.886 36.7288 31.9471 36.8808C32.0082 37.0328 32.0987 37.1712 32.2135 37.2881C32.3282 37.405 32.465 37.4981 32.6158 37.562C32.7667 37.6259 32.9286 37.6593 33.0924 37.6604C33.3611 37.6626 33.6229 37.5756 33.8368 37.413L44.0077 31.792C44.23 31.6995 44.4211 31.5452 44.5583 31.3473C44.6955 31.1494 44.7729 30.9163 44.7816 30.6756C44.7902 30.435 44.7295 30.1969 44.6069 29.9897C44.4842 29.7825 44.3046 29.6149 44.0895 29.5067L44.0874 29.5088Z" fill="#00DEDB"/>
</svg>
